<svg width="34" height="37" viewBox="0 0 34 37" fill="none" xmlns="http://www.w3.org/2000/svg">
<path d="M31.1667 2.84615H26.9167V1.42308C26.9167 1.04565 26.7674 0.683688 26.5017 0.416809C26.2361 0.149931 25.8757 0 25.5 0C25.1243 0 24.7639 0.149931 24.4983 0.416809C24.2326 0.683688 24.0833 1.04565 24.0833 1.42308V2.84615H9.91667V1.42308C9.91667 1.04565 9.76741 0.683688 9.50173 0.416809C9.23606 0.149931 8.87572 0 8.5 0C8.12428 0 7.76394 0.149931 7.49827 0.416809C7.23259 0.683688 7.08333 1.04565 7.08333 1.42308V2.84615H2.83333C2.08189 2.84615 1.36122 3.14602 0.829864 3.67977C0.298511 4.21353 0 4.93746 0 5.69231V34.1538C0 34.9087 0.298511 35.6326 0.829864 36.1664C1.36122 36.7001 2.08189 37 2.83333 37H31.1667C31.9181 37 32.6388 36.7001 33.1701 36.1664C33.7015 35.6326 34 34.9087 34 34.1538V5.69231C34 4.93746 33.7015 4.21353 33.1701 3.67977C32.6388 3.14602 31.9181 2.84615 31.1667 2.84615ZM24.3773 20.9299L15.8773 29.4684C15.7457 29.6007 15.5895 29.7056 15.4175 29.7773C15.2455 29.8489 15.0612 29.8857 14.875 29.8857C14.6888 29.8857 14.5045 29.8489 14.3325 29.7773C14.1605 29.7056 14.0043 29.6007 13.8727 29.4684L9.62271 25.1991C9.35688 24.9321 9.20755 24.5699 9.20755 24.1923C9.20755 23.8147 9.35688 23.4525 9.62271 23.1855C9.88853 22.9185 10.2491 22.7684 10.625 22.7684C11.0009 22.7684 11.3615 22.9185 11.6273 23.1855L14.875 26.4497L22.3727 18.9162C22.5043 18.784 22.6606 18.6791 22.8326 18.6076C23.0045 18.536 23.1889 18.4992 23.375 18.4992C23.5611 18.4992 23.7455 18.536 23.9174 18.6076C24.0894 18.6791 24.2457 18.784 24.3773 18.9162C24.5089 19.0485 24.6133 19.2054 24.6846 19.3782C24.7558 19.5509 24.7925 19.7361 24.7925 19.9231C24.7925 20.1101 24.7558 20.2952 24.6846 20.468C24.6133 20.6407 24.5089 20.7977 24.3773 20.9299ZM2.83333 11.3846V5.69231H7.08333V7.11538C7.08333 7.49281 7.23259 7.85477 7.49827 8.12165C7.76394 8.38853 8.12428 8.53846 8.5 8.53846C8.87572 8.53846 9.23606 8.38853 9.50173 8.12165C9.76741 7.85477 9.91667 7.49281 9.91667 7.11538V5.69231H24.0833V7.11538C24.0833 7.49281 24.2326 7.85477 24.4983 8.12165C24.7639 8.38853 25.1243 8.53846 25.5 8.53846C25.8757 8.53846 26.2361 8.38853 26.5017 8.12165C26.7674 7.85477 26.9167 7.49281 26.9167 7.11538V5.69231H31.1667V11.3846H2.83333Z" fill="url(#paint0_linear_257_935)"/>
<defs>
<linearGradient id="paint0_linear_257_935" x1="12.3786" y1="69.0667" x2="12.3787" y2="-28.3667" gradientUnits="userSpaceOnUse">
<stop stop-color="#9EC43C"/>
<stop offset="1" stop-color="#2E8B57"/>
</linearGradient>
</defs>
</svg>
