<svg width="31" height="34" viewBox="0 0 31 34" fill="none" xmlns="http://www.w3.org/2000/svg">
<path d="M28.4167 2.61538H24.5417V1.30769C24.5417 0.960871 24.4056 0.628254 24.1633 0.383014C23.9211 0.137774 23.5926 0 23.25 0C22.9074 0 22.5789 0.137774 22.3367 0.383014C22.0944 0.628254 21.9583 0.960871 21.9583 1.30769V2.61538H9.04167V1.30769C9.04167 0.960871 8.90558 0.628254 8.66335 0.383014C8.42111 0.137774 8.09257 0 7.75 0C7.40743 0 7.07889 0.137774 6.83665 0.383014C6.59442 0.628254 6.45833 0.960871 6.45833 1.30769V2.61538H2.58333C1.89819 2.61538 1.24111 2.89093 0.756641 3.38141C0.272172 3.87189 0 4.53713 0 5.23077V31.3846C0 32.0783 0.272172 32.7435 0.756641 33.234C1.24111 33.7244 1.89819 34 2.58333 34H28.4167C29.1018 34 29.7589 33.7244 30.2434 33.234C30.7278 32.7435 31 32.0783 31 31.3846V5.23077C31 4.53713 30.7278 3.87189 30.2434 3.38141C29.7589 2.89093 29.1018 2.61538 28.4167 2.61538ZM6.45833 7.84615V6.53846C6.45833 6.19164 6.59442 5.85902 6.83665 5.61378C7.07889 5.36854 7.40743 5.23077 7.75 5.23077C8.09257 5.23077 8.42111 5.36854 8.66335 5.61378C8.90558 5.85902 9.04167 6.19164 9.04167 6.53846V7.84615C9.04167 8.19298 8.90558 8.52559 8.66335 8.77083C8.42111 9.01607 8.09257 9.15385 7.75 9.15385C7.40743 9.15385 7.07889 9.01607 6.83665 8.77083C6.59442 8.52559 6.45833 8.19298 6.45833 7.84615ZM23.6617 17.7683L19.7124 21.0686L20.9169 25.9904C20.9476 26.1154 20.9411 26.2467 20.8983 26.368C20.8555 26.4892 20.7783 26.595 20.6764 26.672C20.5645 26.7555 20.4294 26.8007 20.2905 26.8012C20.1769 26.8005 20.0655 26.7694 19.9676 26.7113L15.5 24.0583L11.0373 26.7178C10.9272 26.7838 10.8002 26.8153 10.6724 26.8082C10.5446 26.801 10.4218 26.7556 10.3195 26.6776C10.2173 26.5997 10.1402 26.4928 10.0981 26.3704C10.056 26.248 10.0508 26.1158 10.0831 25.9904L11.2876 21.062L7.33828 17.7683C7.23859 17.6854 7.1657 17.5742 7.12901 17.449C7.09231 17.3237 7.0935 17.1903 7.13242 17.0658C7.17133 16.9412 7.24619 16.8314 7.34734 16.7503C7.44849 16.6692 7.5713 16.6207 7.69995 16.611L12.9054 16.2039L14.9074 11.511C14.9575 11.394 15.0403 11.2944 15.1456 11.2244C15.2509 11.1544 15.3741 11.1172 15.5 11.1172C15.6259 11.1172 15.7491 11.1544 15.8544 11.2244C15.9597 11.2944 16.0425 11.394 16.0926 11.511L18.0946 16.2039L23.3001 16.611C23.4287 16.6207 23.5515 16.6692 23.6527 16.7503C23.7538 16.8314 23.8287 16.9412 23.8676 17.0658C23.9065 17.1903 23.9077 17.3237 23.871 17.449C23.8343 17.5742 23.7614 17.6854 23.6617 17.7683ZM24.5417 7.84615C24.5417 8.19298 24.4056 8.52559 24.1633 8.77083C23.9211 9.01607 23.5926 9.15385 23.25 9.15385C22.9074 9.15385 22.5789 9.01607 22.3367 8.77083C22.0944 8.52559 21.9583 8.19298 21.9583 7.84615V6.53846C21.9583 6.19164 22.0944 5.85902 22.3367 5.61378C22.5789 5.36854 22.9074 5.23077 23.25 5.23077C23.5926 5.23077 23.9211 5.36854 24.1633 5.61378C24.4056 5.85902 24.5417 6.19164 24.5417 6.53846V7.84615Z" fill="url(#paint0_linear_257_1216)"/>
<defs>
<linearGradient id="paint0_linear_257_1216" x1="11.2864" y1="63.4667" x2="11.2865" y2="-26.0667" gradientUnits="userSpaceOnUse">
<stop stop-color="#9EC43C"/>
<stop offset="1" stop-color="#2E8B57"/>
</linearGradient>
</defs>
</svg>
