<svg width="31" height="34" viewBox="0 0 31 34" fill="none" xmlns="http://www.w3.org/2000/svg">
<path d="M28.4167 2.61538H24.5417V1.30769C24.5417 0.960871 24.4056 0.628254 24.1633 0.383014C23.9211 0.137774 23.5926 0 23.25 0C22.9074 0 22.5789 0.137774 22.3367 0.383014C22.0944 0.628254 21.9583 0.960871 21.9583 1.30769V2.61538H9.04167V1.30769C9.04167 0.960871 8.90558 0.628254 8.66335 0.383014C8.42111 0.137774 8.09257 0 7.75 0C7.40743 0 7.07889 0.137774 6.83665 0.383014C6.59442 0.628254 6.45833 0.960871 6.45833 1.30769V2.61538H2.58333C1.89819 2.61538 1.24111 2.89093 0.756641 3.38141C0.272172 3.87189 0 4.53713 0 5.23077V31.3846C0 32.0783 0.272172 32.7435 0.756641 33.234C1.24111 33.7244 1.89819 34 2.58333 34H28.4167C29.1018 34 29.7589 33.7244 30.2434 33.234C30.7278 32.7435 31 32.0783 31 31.3846V5.23077C31 4.53713 30.7278 3.87189 30.2434 3.38141C29.7589 2.89093 29.1018 2.61538 28.4167 2.61538ZM8.39583 27.4615C8.01263 27.4615 7.63804 27.3465 7.31942 27.131C7.0008 26.9154 6.75246 26.6091 6.60582 26.2506C6.45917 25.8922 6.4208 25.4978 6.49556 25.1173C6.57032 24.7368 6.75485 24.3873 7.02581 24.113C7.29678 23.8387 7.64201 23.6518 8.01785 23.5762C8.39368 23.5005 8.78325 23.5393 9.13728 23.6878C9.49131 23.8362 9.79391 24.0877 10.0068 24.4102C10.2197 24.7328 10.3333 25.112 10.3333 25.5C10.3333 26.0202 10.1292 26.5192 9.76585 26.887C9.4025 27.2549 8.90969 27.4615 8.39583 27.4615ZM15.5 27.4615C15.1168 27.4615 14.7422 27.3465 14.4236 27.131C14.105 26.9154 13.8566 26.6091 13.71 26.2506C13.5633 25.8922 13.525 25.4978 13.5997 25.1173C13.6745 24.7368 13.859 24.3873 14.13 24.113C14.4009 23.8387 14.7462 23.6518 15.122 23.5762C15.4978 23.5005 15.8874 23.5393 16.2414 23.6878C16.5955 23.8362 16.8981 24.0877 17.111 24.4102C17.3239 24.7328 17.4375 25.112 17.4375 25.5C17.4375 26.0202 17.2334 26.5192 16.87 26.887C16.5067 27.2549 16.0139 27.4615 15.5 27.4615ZM15.5 20.9231C15.1168 20.9231 14.7422 20.808 14.4236 20.5925C14.105 20.377 13.8566 20.0706 13.71 19.7122C13.5633 19.3538 13.525 18.9594 13.5997 18.5789C13.6745 18.1984 13.859 17.8488 14.13 17.5745C14.4009 17.3002 14.7462 17.1134 15.122 17.0377C15.4978 16.962 15.8874 17.0008 16.2414 17.1493C16.5955 17.2978 16.8981 17.5492 17.111 17.8718C17.3239 18.1943 17.4375 18.5736 17.4375 18.9615C17.4375 19.4818 17.2334 19.9807 16.87 20.3486C16.5067 20.7164 16.0139 20.9231 15.5 20.9231ZM22.6042 27.4615C22.221 27.4615 21.8464 27.3465 21.5278 27.131C21.2091 26.9154 20.9608 26.6091 20.8141 26.2506C20.6675 25.8922 20.6291 25.4978 20.7039 25.1173C20.7787 24.7368 20.9632 24.3873 21.2341 24.113C21.5051 23.8387 21.8503 23.6518 22.2262 23.5762C22.602 23.5005 22.9916 23.5393 23.3456 23.6878C23.6996 23.8362 24.0022 24.0877 24.2151 24.4102C24.428 24.7328 24.5417 25.112 24.5417 25.5C24.5417 26.0202 24.3375 26.5192 23.9742 26.887C23.6108 27.2549 23.118 27.4615 22.6042 27.4615ZM22.6042 20.9231C22.221 20.9231 21.8464 20.808 21.5278 20.5925C21.2091 20.377 20.9608 20.0706 20.8141 19.7122C20.6675 19.3538 20.6291 18.9594 20.7039 18.5789C20.7787 18.1984 20.9632 17.8488 21.2341 17.5745C21.5051 17.3002 21.8503 17.1134 22.2262 17.0377C22.602 16.962 22.9916 17.0008 23.3456 17.1493C23.6996 17.2978 24.0022 17.5492 24.2151 17.8718C24.428 18.1943 24.5417 18.5736 24.5417 18.9615C24.5417 19.4818 24.3375 19.9807 23.9742 20.3486C23.6108 20.7164 23.118 20.9231 22.6042 20.9231ZM28.4167 10.4615H2.58333V5.23077H6.45833V6.53846C6.45833 6.88528 6.59442 7.2179 6.83665 7.46314C7.07889 7.70838 7.40743 7.84615 7.75 7.84615C8.09257 7.84615 8.42111 7.70838 8.66335 7.46314C8.90558 7.2179 9.04167 6.88528 9.04167 6.53846V5.23077H21.9583V6.53846C21.9583 6.88528 22.0944 7.2179 22.3367 7.46314C22.5789 7.70838 22.9074 7.84615 23.25 7.84615C23.5926 7.84615 23.9211 7.70838 24.1633 7.46314C24.4056 7.2179 24.5417 6.88528 24.5417 6.53846V5.23077H28.4167V10.4615Z" fill="url(#paint0_linear_257_1215)"/>
<defs>
<linearGradient id="paint0_linear_257_1215" x1="11.2864" y1="63.4667" x2="11.2865" y2="-26.0667" gradientUnits="userSpaceOnUse">
<stop stop-color="#9EC43C"/>
<stop offset="1" stop-color="#2E8B57"/>
</linearGradient>
</defs>
</svg>
